<svg xmlns="http://www.w3.org/2000/svg" xmlns:xlink="http://www.w3.org/1999/xlink" viewBox="0 0 845.28 685.53"><defs><style>.cls-1{fill:url(#Degradado_sin_nombre_16);}.cls-2{fill:url(#Degradado_sin_nombre_16-2);}</style><linearGradient id="Degradado_sin_nombre_16" x1="77.36" y1="500" x2="558.81" y2="500" gradientUnits="userSpaceOnUse"><stop offset="0" stop-color="#9d4edd"/><stop offset="1" stop-color="#5a189a"/></linearGradient><linearGradient id="Degradado_sin_nombre_16-2" x1="517.7" y1="514.87" x2="922.64" y2="514.87" xlink:href="#Degradado_sin_nombre_16"/></defs><g id="Negro"><path d="M77.36,842.77H183.57L432,548.78l.95,113.48s4.93,97.44-107.75,147.14c168.42-49.81,157.28-127,157.28-132.76V216.38c0-7,8.36-45.42,76.34-59.15H331.32C389,177.4,431.66,212.81,431.66,246.6c.11,0,.11,262.55,0,262.55H365.87Z" transform="translate(-77.36 -157.23)"/><path d="M860,246.68c-42.55-18.21-290.72-30.47-295.83,169.19,0,9.7-2,67.92-2,86.81,12.25,0,131.31-122.48,139.4-172.08,19.41,0,64.34.23,92.43.23-10.22,65-94,127.6-162.64,175.68,25.79,30.38,263.23,307.15,291.32,336.26H817.45c-12.12-.69-217.54-256.68-247.15-285.62-1,76.76,3.06,242.72,3.06,285.62H517.7S520.77,459.28,527.91,397C537.11,229.49,708.68,109.49,860,246.68Z" transform="translate(-77.36 -157.23)"/></g><g id="Blanco"><path class="cls-1" d="M77.36,842.77H183.57L432,548.78l.95,113.48s4.93,97.44-107.75,147.14c168.42-49.81,157.28-127,157.28-132.76V216.38c0-7,8.36-45.42,76.34-59.15H331.32C389,177.4,431.66,212.81,431.66,246.6c.11,0,.11,262.55,0,262.55H365.87Z" transform="translate(-77.36 -157.23)"/><path class="cls-2" d="M860,246.68c-42.55-18.21-290.72-30.47-295.83,169.19,0,9.7-2,67.92-2,86.81,12.25,0,131.31-122.48,139.4-172.08,19.41,0,64.34.23,92.43.23-10.22,65-94,127.6-162.64,175.68,25.79,30.38,263.23,307.15,291.32,336.26H817.45c-12.12-.69-217.54-256.68-247.15-285.62-1,76.76,3.06,242.72,3.06,285.62H517.7S520.77,459.28,527.91,397C537.11,229.49,708.68,109.49,860,246.68Z" transform="translate(-77.36 -157.23)"/></g></svg>