<svg xmlns="http://www.w3.org/2000/svg" viewBox="0 0 845.28 685.53"><defs><style>.cls-1{fill:#fff;}</style></defs><g id="Capa_2" data-name="Capa 2"><g id="Blanco"><path class="cls-1" d="M0,685.53H106.21l248.42-294L355.57,505s4.94,97.45-107.74,147.15c168.42-49.81,157.28-127,157.28-132.77V59.15c0-7,8.36-45.42,76.34-59.15H254C311.66,20.17,354.3,55.57,354.3,89.36c.11,0,.11,262.55,0,262.55H288.51Z"/><path class="cls-1" d="M782.64,89.45C740.09,71.23,491.91,59,486.81,258.64c0,9.7-2,67.91-2,86.81,12.25,0,131.31-122.48,139.4-172.09,19.4,0,64.34.23,92.43.23-10.22,65-94,127.6-162.64,175.69,25.78,30.38,263.23,307.15,291.32,336.25H740.08C728,684.85,522.55,428.85,492.94,399.91c-1,76.77,3.06,242.73,3.06,285.62H440.34S443.4,302,450.55,239.74C459.74,72.26,631.32-47.74,782.64,89.45Z"/></g></g></svg>