<svg xmlns="http://www.w3.org/2000/svg" xmlns:xlink="http://www.w3.org/1999/xlink" viewBox="0 0 555.79 644.58"><defs><style>.cls-1{fill:url(#Degradado_sin_nombre_31);}.cls-2{fill:url(#Degradado_sin_nombre_30);}.cls-3{fill:url(#Degradado_sin_nombre_23);}.cls-4{fill:url(#Degradado_sin_nombre_33);}.cls-5{fill:url(#Degradado_sin_nombre_19);}.cls-6{fill:url(#Degradado_sin_nombre_24);}.cls-7{fill:url(#Degradado_sin_nombre_29);}.cls-8{fill:url(#Degradado_sin_nombre_37);}.cls-9{fill:url(#Degradado_sin_nombre_19-2);}.cls-10{fill:url(#Degradado_sin_nombre_35);}</style><linearGradient id="Degradado_sin_nombre_31" x1="391.54" y1="484.03" x2="632.16" y2="484.03" gradientUnits="userSpaceOnUse"><stop offset="0" stop-color="#773ba9"/><stop offset="0" stop-color="#773ba9"/><stop offset="0.34" stop-color="#51208d"/><stop offset="0.61" stop-color="#3a0f7b"/><stop offset="0.78" stop-color="#310975"/></linearGradient><linearGradient id="Degradado_sin_nombre_30" x1="392.7" y1="403.16" x2="436.49" y2="403.16" gradientUnits="userSpaceOnUse"><stop offset="0" stop-color="#773ba9"/><stop offset="0.26" stop-color="#7439a6"/><stop offset="0.49" stop-color="#69319f"/><stop offset="0.71" stop-color="#572491"/><stop offset="0.91" stop-color="#3e137f"/><stop offset="1" stop-color="#310975"/></linearGradient><linearGradient id="Degradado_sin_nombre_23" x1="436.79" y1="345.74" x2="545.04" y2="345.74" gradientUnits="userSpaceOnUse"><stop offset="0" stop-color="#773ba9"/><stop offset="0.04" stop-color="#7237a5"/><stop offset="0.28" stop-color="#552390"/><stop offset="0.52" stop-color="#411581"/><stop offset="0.76" stop-color="#350c78"/><stop offset="1" stop-color="#310975"/></linearGradient><linearGradient id="Degradado_sin_nombre_33" x1="342.82" y1="447.91" x2="778.32" y2="447.91" gradientUnits="userSpaceOnUse"><stop offset="0" stop-color="#773ba9"/><stop offset="0.04" stop-color="#69319f"/><stop offset="0.13" stop-color="#51208c"/><stop offset="0.22" stop-color="#3f137f"/><stop offset="0.32" stop-color="#340b78"/><stop offset="0.44" stop-color="#310975"/></linearGradient><linearGradient id="Degradado_sin_nombre_19" x1="406.5" y1="362.05" x2="433.37" y2="362.05" gradientUnits="userSpaceOnUse"><stop offset="0" stop-color="#773ba9"/><stop offset="0.22" stop-color="#6d34a2"/><stop offset="0.6" stop-color="#53218e"/><stop offset="1" stop-color="#310975"/></linearGradient><linearGradient id="Degradado_sin_nombre_24" x1="405.97" y1="337.02" x2="427.56" y2="337.02" gradientUnits="userSpaceOnUse"><stop offset="0" stop-color="#773ba9"/><stop offset="0.15" stop-color="#67309d"/><stop offset="0.5" stop-color="#4a1b87"/><stop offset="0.79" stop-color="#370e7a"/><stop offset="1" stop-color="#310975"/></linearGradient><linearGradient id="Degradado_sin_nombre_29" x1="401.11" y1="378.67" x2="433.5" y2="378.67" gradientUnits="userSpaceOnUse"><stop offset="0" stop-color="#773ba9"/><stop offset="0.42" stop-color="#773ba9"/><stop offset="0.55" stop-color="#6d34a2"/><stop offset="0.77" stop-color="#53218e"/><stop offset="1" stop-color="#310975"/></linearGradient><linearGradient id="Degradado_sin_nombre_37" x1="232.15" y1="481.16" x2="375.68" y2="529.97" gradientUnits="userSpaceOnUse"><stop offset="0" stop-color="#773ba9"/><stop offset="0.55" stop-color="#4e1e8b"/><stop offset="1" stop-color="#310975"/></linearGradient><linearGradient id="Degradado_sin_nombre_19-2" x1="460.74" y1="390.58" x2="524.04" y2="390.58" xlink:href="#Degradado_sin_nombre_19"/><linearGradient id="Degradado_sin_nombre_35" x1="536.17" y1="755.89" x2="610.31" y2="810.78" gradientUnits="userSpaceOnUse"><stop offset="0.02"/><stop offset="0.05" stop-color="#030108"/><stop offset="0.25" stop-color="#14042f"/><stop offset="0.45" stop-color="#20064d"/><stop offset="0.65" stop-color="#2a0863"/><stop offset="0.83" stop-color="#2f0971"/><stop offset="1" stop-color="#310975"/></linearGradient></defs><g id="Capa_16" data-name="Capa 16"><path class="cls-1" d="M547.13,425.34c-3.15,4.36-3.32,21.57,2.93,27.19,2.05,1.73,6.9.38,6.9.38s-2,6.45-10,5.3-11.49-14.93-11.49-14.93a33.51,33.51,0,0,1-1.31-11.78c.5-4.27,2-15.36,11.65-23.65,2.61-2.77,11.81-8.64,8.68-20.17-.58-4-6.32-11.94-6.83-13.57,0-.08-.08-.18-.12-.27-6.67.31-13.24.56-13.24.78a1.72,1.72,0,0,1-1.71,1.78c-1.44,0-4.81.05-4.72,1.58.1,1.22.53,3.93.79,7.42l1.3,1.3-1.25-.53c.73,11.89-1,31.95-24.46,36.19-20.74,3.08-33.93.55-43-15-4.85-9.64-4.63-12.35-5.22-14-3.72-4.13-10.27-5.68-16.08-1,0,0,1.66,15.7-2.21,22.47-1.42,2.15-8.15,15.68-29.73,16.06a26.07,26.07,0,0,1-15.89-6c-1.87,18.43.78,34.33,5.23,44.24,14.43,33.44,68.39,55.19,68.39,55.19a53.09,53.09,0,0,0,6.29,2.13c.83,4.61,1.65,8.63,2.47,12.25,1,4.37,2.14,9.11,2.92,12.88a2.59,2.59,0,0,1,.05.54c.94,3.25,4.6,18-6.2,18.8-6.27.88-15,19.51-15,19.51s-3.23,5.37,0,7.07,9.68,1.37,9.68,1.37,41.49,1,50.74-5.53c11.24-6.13,31.21-22.72,37.85-30.38,1.57-1.81,2.81-4.56,5.11-8.56,1.88-4.33,3.44-6.54,4.7-7.47C557,538.83,547.53,527,546,522.55a114.53,114.53,0,0,1-3.89-11.93A80.08,80.08,0,0,1,539.66,497c-9.14,5.07-18.11,9.88-25.72,12.69-4.17,1.76-19.09,6.76-5.71,0A108.56,108.56,0,0,0,540.11,487c.06-.25.12-.49.19-.73,2.61-8.87,19.79-25.21,21.19-27.88s2.74-14.44,2.74-14.44a24.59,24.59,0,0,0,11.62.71c3.19-.71,16.09-21.19,19.85-29.17s2.81-23.05-7.15-38.3-19.78-4.21-21-3.13-5.44,12.41-5.51,17.87c-.27,3.11.09,8.17-.3,10C560.34,410.28,549.17,421.66,547.13,425.34ZM441.81,414s.06,2-1.72,7.34.44,10.28,2.23,14.11-.51,4.85-.51,4.85a19.11,19.11,0,0,1-5.32-12.13C436,420.49,441.81,414,441.81,414Zm51.69,57.27s-4.89,2.86-15.19,4.05c0,0,12.94-2.81,14.21-4.13S493.5,471.25,493.5,471.25Zm4-1.39c-6.16.72-20.14-1.22-27.84-2.08s-25.13,2.12-27.24,2.7-4.68.1-4.78-.23c.63,2.2.76,4.84,3,5.53s15.07,1.48,15.07,1.48-15.42,1-17.63-1.69-1.67-9.23-.31-9.28,0,3.15,3.73,2,18.87-3.44,29-2.42,24.5,1.91,26.58.39,1.17-5.66,1.17-5.66S502.51,468.52,497.47,469.86Zm77.06-56.26c5.41-5.3,4-10.06,2.47-12.6-2.3-3.74-10-5-10.38-10.42-.43-8.43,1.83-13.37,9-14.88,3.81-.61,6.7,2.13,6.95,3-2.64-1.81-6.22-1.91-6.82-1.64-8.05,2.62-6.86,8.71-6.84,12.22.58,3.85,3.45,4.08,8.37,8.29a11.44,11.44,0,0,1,3.12,13c-4.78,7.14-12.44,10.27-14.55,12.38s0,6,2.49,7.3,7.74-2.73,7.06-1.79-6.58,4.8-9.36,2.4C558.2,423.33,567.55,419.72,574.53,413.6Z" transform="translate(-222.53 -197.07)"/><path class="cls-2" d="M434.33,388.17c-.37.06-1.13-.17-2.61-1l-1.66-1c.68,1.38.94,3.89,1.32,9s-5,7.47-12,8.47-6.93-9.94-7-12.41.94-6.83,2.22-4.85,3.55,2.4,5.49,2.3a5.34,5.34,0,0,0,4.46-5.17,1.31,1.31,0,0,1,.17-.67c-1.6-1-3-1.86-4.08-2.4-3.15-1.06-5.19-2.21-15,3.37,0,0-3.06,2.44-3.89,3-.43.27-.9.36-.88,0a88,88,0,0,0-6,21.63c-1,4.06-1.72,8.05-2.26,11.94,8.29,7.82,15.7,7,23.62,5.47,23.15-7.11,20.25-24.77,19.83-32.17,0-.14,0-.34,0-.57a2.4,2.4,0,0,1-1.28.48C434.18,393.54,435.5,391.48,434.33,388.17Zm-7.88,17.17c-4,1.24-5.92,1.57-7.79,1.49-1.79.51-3.62-1.57-1.75-1.32s15.2-2.76,15.2-2.76A18.74,18.74,0,0,1,426.45,405.34Z" transform="translate(-222.53 -197.07)"/><path class="cls-3" d="M459.11,366.43c-5.11,8.36-12.16,14-16.37,12.19-1.19-1-7.44-1.36-5.61.68.81,1.66,2.25,3.36,2.55,6.25a12.11,12.11,0,0,1-.32,2.07c3.14-3.31,12.32-3.47,16.28-.41,0,0-1.77-24,29.45-28.51,2.93-.39,27.78-3.18,36.68,8.94.89,1.22.59,2.13,4.76-.26,3.49-.59,3.66,2.64,4.94,2.9.65.13,7.1-.56,13.57-1.37-1.91-3.42-4.32-7.07-5.66-7.23-6.68-1.38-11.47-4.12-14.91-7.56a17.89,17.89,0,0,1-2.11-.44c-5.53-1.45-10.13-3.21-14.3-3.74a142.91,142.91,0,0,0-18.72-.6c-9.55.73-12.22,2.82-15.91,4.17-3.53,1.29-4.38,1.91-5.88,1.28-.55-.21-1.76-3,0-3.83s9.6-4.79,14.81-5.7,22-.43,26.64.76c3.35.87,9.63,3.88,13.25,5.56-8.78-11.59-5.64-28.54-6-31.86-5,11.15,1.19,24.64,1.06,24.81s.51.26-1.66,0c-15.19-5.53-12.55-23-11.4-26.34s-1.61-3.79-3.07-4.76-2.74-2.86-4.3-3.58c-4.4-1.56-5.57-3.74-7-3.74-6.61.06-9.77.06-12.77-.85-2.23-.78-10.08-2.92-15.57.4S458,330.94,460,335.47s4.62,9.74,4.36,14.85S461.09,363.17,459.11,366.43Z" transform="translate(-222.53 -197.07)"/><path class="cls-4" d="M382.32,263.72c54.51-53.1,95.36-27.7,101.62-24.63,47.74-35.49,99.32,29,101.74,32.42s6.38-.38,12.38,1.15,19.28,28.85,23.24,41.11S635,341.6,644,346.83s47.62,32.94,30.89,54.77-.12,38.68,27.58,31.14,34.64,10.35,35.53,26.05-31.7,21.83-26.85,18.25c39.86-29.37-25.53-40.85-19.15-9.19,3.21,15.9,26.87,19.41,34,25.15,11.87,9.57-1.21,43.53,1,47.23,25.79,15.07,29.23,37.54.51,45.71,12.89,7.15,12.09,20.06,11.36,22.68-2.08,7-11.61,7.7-9.57,5.4,7.46-8.1-6.65-17.16-14.94-23-3.91,5.86-1.7,14.19-1.66,14.43.49,3.66,14.43,9.06,15.19,20.55-1.27,17.11-17.74,19.66-17.74,19.66s-1.28-2.81-.64-5c9.7-6,10.09-11.49,5-14.93a14.69,14.69,0,0,1-11.62-6.51c-1.56-3.44-3.27-6.71-5.06-9.82,3.07,6.49,5.25,13.5,7.79,22.28,6.38,18.88,12.13,50.62,12.89,67,7.39-13.74,20.54-21.67,25.23-33.41,3.84-9.61,4.09-24,2.75-35.82,2.74-2.82,11-20.84,12-25.63,1-5.12-.94-12.34-2.64-16.42,3.42-5.17,7.05-10.74,7.66-15.75.64-5.3-2.47-10.21-4-15.17.25-3.16,4.74-5.81,4.9-9A7.22,7.22,0,0,0,763,542c5.7-4.08,5.78-9.14,5.78-14.64,0-4.94-2.21-13.1-8.36-15.49,12.83-3.19,14.75-12.76,17.94-22.08-4.6-4.09-6-16.72-21.76-19.21,4.18-2.28,4.93-11.14,4.18-15.22-1.41-7.77-2.21-13.61-11.17-20.07-1.71-6.84,4.62-19.88.54-31.67-3.85-11.11-13-20.43-19.31-23.76-2.12-4.89.76-12.55-1.44-17.35-1.43-3.13-3.11-5.16-10.67-7.66,2-8.42,2.26-33.44-3.56-42.13-8.34-12.45-20.84-20.15-33.91-27.11-.82-10-3.58-16.77-14.43-24.63-15-10.9-33.71-6.08-35.84-7.7-10.52-8-7.83-17.43-19.48-23.28-8.53-4.28-31.18-5.48-40.2-8.59-2.87-4.34-5.87-7.68-10.1-8.86-3.68-1-9.87-.42-13.56,2.15-5.84-5.12-11.33-6.85-23.63-4.95-10.81-9.24-33.65-13.41-41.36-12.6-10.08,1.06-28.94,10.38-39.36,18.36-3.37-1.21-5.81-2.15-9.37-1.08a16.81,16.81,0,0,0-8.12,6.13c-2.39-9.37-15.21-.52-21.62-4.35-3.53,6-20.34,12.94-14.17,19.67-8.51,4.51-25,2-33,7.57-7.7,5.3-7,18.55-14.18,24.73C358.48,279.76,373.12,269,382.32,263.72Z" transform="translate(-222.53 -197.07)"/><path class="cls-5" d="M417.81,367.06a20.63,20.63,0,0,1,7,2.16,12,12,0,0,1,6.56-6.26c3.15-.85,1.62-4,1.62-4a20.11,20.11,0,0,1-2-1.57,1.27,1.27,0,0,1-1.15.76c-1.16,0-5.7-2.9-7.61-3.19-1.22-.3-13.88.21-15,.29-.16,0-.44.05-.8.11.09,3.83.13,8,0,12.22A43.6,43.6,0,0,1,417.81,367.06Z" transform="translate(-222.53 -197.07)"/><path class="cls-6" d="M424.19,352.49c.56.14,2,.6,3.37,1.14-9.32-11.84-15-33.23-15-33.23s-6.72,7.66-6.55,15.66c-.2,2.65.19,8.89.42,16.77C410.42,352.09,423.05,352.19,424.19,352.49Z" transform="translate(-222.53 -197.07)"/><path class="cls-7" d="M402.74,384.3c2.81-2.81,8.94-7.47,11.75-7.66s5.62,1.15,9.7,3.38a89.65,89.65,0,0,1,9.31,6.36,19.49,19.49,0,0,0-5.18-5.55c-2.65-2.55-3.85-5-4.13-7.18a21.22,21.22,0,0,0-8.55-2.52,39.37,39.37,0,0,0-9.26.22c-.67,4.16-2.89,8.93-5.27,14.86A11.47,11.47,0,0,1,402.74,384.3Z" transform="translate(-222.53 -197.07)"/><path class="cls-8" d="M319.66,729c-.29-3.83-.77-16.17-.88-22.46-.08-4.36,11.75-25.09,16.54-35.42,3-7.65,14.05-32,20.68-45.44a120.22,120.22,0,0,1,17.79-25c-4-.72-6.86-2.07-10.75-1.95-16.34,2-17.19,4.92-18.89,8.81C340.44,616,353,620.28,353,620.28s1.53,7.4-8.3,3.06-18.77-15.19-8.17-28.21-1.34-31.5-4.72-34.34c.63,7.53-19,13.27-21.83,17.61s-3.58,7.66,4.46,21.58c-27.95-4.85-20.29-28.6-9.95-33.83,10.08-5.87,36.25-15.45-2.05-49.79-36.63-43.66-1.78-64.21-1.78-64.21s-14.43-6.38-14.43-17.87c.9-31.66,23.75-20.43,33.19-23.88s10.22-13.78.39-35.36c-11.37-24.89-5.62-38.55,13-56.42,12.38-10.6,31.15-31.53,31.15-31.53-10.54.56-21.26-3-24.25-16.15-21.84,6.83-46.1,18.35-60.9,41C271,324,261.94,356.15,267,368.91c-3.93.31-6.38,3.64-8.23,6.47-1.53,3.48-1.48,9.53-.56,13.58-7.73,10.53-17.75,22.66-21.35,35.78-2.7,9.86,1.56,22.74,1.59,32.56-2.36.55-6.89,3.2-8.44,5.74s1,9.6,1.32,11.58c-3.28,4.6-7.92,15.72-8.41,20.42-1.36,13.08,1,20.94,9.21,31.59-4.63,3-8.86,13.65-9.16,19.65a43.16,43.16,0,0,0,6.7,24.5c-3.3,31.75-6.43,46.63,15.7,84.35-3.06,2-2.44,11-1.87,13.53.61,3.91,6.37,13.89,8.68,15.32-1.56,22.92,7.94,34.46,9,44.77,6.74,2.4,16.94,12.32,32.55,15.93.29,2.12,2.87,5.3,5,5.87,3.75,1,8-1,11.14.92C313.91,743.49,319.86,731.64,319.66,729Z" transform="translate(-222.53 -197.07)"/><path class="cls-9" d="M489,362.45c-18.3,1.53-26.39,11.89-27.72,18s0,11.91,1.85,18.74a26.48,26.48,0,0,0,25.27,19.66c20.9,0,27.54-3.57,31.79-11.57,2.83-4.61,4.55-15,3.57-23.82l-.39-.31a11.86,11.86,0,0,1,0,2.38c-.17,1.62-2.3,4.68-4.77,5.24s-1.7-.21-1.1-1.15c2.3-1.07,3.31-8.52,3.31-8.52-2.07-1.63-4.53-3.54-6.7-5.15,1,2.8-.15,13.79-.91,16.88-1,.77-17.78,2.46-18.6,1.67-6.59-8.22-2.51-19-2.51-19s.81-.08,1,.26c0,.55.77,1.83,2,3.49s5.06,1.15,6,.08.9-5.86.55-8.47a28.82,28.82,0,0,0-9.2.56c-7.67,2-15.65,12.08-15.65,12.08s-1.87-1.19-.93-2.64,5.1-5.87,5.1-5.87c3.07-4.68,12.09-9.19,22.43-7.15,6.11,1.21,14.29,7.56,20,12.56a25.93,25.93,0,0,0-1.19-4.26C518.26,364.36,502.45,361.51,489,362.45Zm1.39,36.31s11.95-3,15.93-2.38c1.17.82-.42,1.57-3.6,2s-12.31,1.14-12.31,1.14A.55.55,0,0,1,490.39,398.76Z" transform="translate(-222.53 -197.07)"/><path class="cls-10" d="M553.26,786.11c5.61,17.36,5.1,19.4,2.55,18.38s-11.75-3.06-11.24-6.64-3.06-25.53,2-25.53,12.25-15.83,12.25-15.83,11.75-50.85,14-62.06-10.63,36.7-10.63,36.7l-5.11,18.72s-5.11,16-10.21,17.7-8.51,9.88-7.15,19.75,1,16.34,3.4,17,12.26,5.47,12.26,5.47-9.87,18-25.79,31.86c33-5,64.17-17.31,92.25-35.55C585.25,790.68,550.41,777.33,553.26,786.11Z" transform="translate(-222.53 -197.07)"/></g></svg>